ModelForces
version=1
nRows=4
nColumns=158
inDegrees=no

This file contains the forces exerted on a model during a simulation.

A force is a generalized force, meaning that it can be either a force (N) or a torque (Nm).

Units are S.I. units (second, meters, Newtons, ...)
Angles are in degrees.

endheader
time	glut_med1_r	glut_med2_r	glut_med3_r	glut_min1_r	glut_min2_r	glut_min3_r	semimem_r	semiten_r	bifemlh_r	bifemsh_r	sar_r	add_long_r	add_brev_r	add_mag1_r	add_mag2_r	add_mag3_r	tfl_r	pect_r	grac_r	glut_max1_r	glut_max2_r	glut_max3_r	iliacus_r	psoas_r	quad_fem_r	gem_r	peri_r	rect_fem_r	vas_med_r	vas_int_r	vas_lat_r	med_gas_r	lat_gas_r	soleus_r	tib_post_r	flex_dig_r	flex_hal_r	tib_ant_r	per_brev_r	per_long_r	per_tert_r	ext_dig_r	ext_hal_r	glut_med1_l	glut_med2_l	glut_med3_l	glut_min1_l	glut_min2_l	glut_min3_l	semimem_l	semiten_l	bifemlh_l	bifemsh_l	sar_l	add_long_l	add_brev_l	add_mag1_l	add_mag2_l	add_mag3_l	tfl_l	pect_l	grac_l	glut_max1_l	glut_max2_l	glut_max3_l	iliacus_l	psoas_l	quad_fem_l	gem_l	peri_l	rect_fem_l	vas_med_l	vas_int_l	vas_lat_l	med_gas_l	lat_gas_l	soleus_l	tib_post_l	flex_dig_l	flex_hal_l	tib_ant_l	per_brev_l	per_long_l	per_tert_l	ext_dig_l	ext_hal_l	ercspn_r	ercspn_l	intobl_r	intobl_l	extobl_r	extobl_l	femur_lat_meniscii_r.femur_lat_r.force.X	femur_lat_meniscii_r.femur_lat_r.force.Y	femur_lat_meniscii_r.femur_lat_r.force.Z	femur_lat_meniscii_r.femur_lat_r.torque.X	femur_lat_meniscii_r.femur_lat_r.torque.Y	femur_lat_meniscii_r.femur_lat_r.torque.Z	femur_lat_meniscii_r.meniscus_lat_r.force.X	femur_lat_meniscii_r.meniscus_lat_r.force.Y	femur_lat_meniscii_r.meniscus_lat_r.force.Z	femur_lat_meniscii_r.meniscus_lat_r.torque.X	femur_lat_meniscii_r.meniscus_lat_r.torque.Y	femur_lat_meniscii_r.meniscus_lat_r.torque.Z	femur_med_meniscii_r.femur_med_r.force.X	femur_med_meniscii_r.femur_med_r.force.Y	femur_med_meniscii_r.femur_med_r.force.Z	femur_med_meniscii_r.femur_med_r.torque.X	femur_med_meniscii_r.femur_med_r.torque.Y	femur_med_meniscii_r.femur_med_r.torque.Z	femur_med_meniscii_r.meniscus_med_r.force.X	femur_med_meniscii_r.meniscus_med_r.force.Y	femur_med_meniscii_r.meniscus_med_r.force.Z	femur_med_meniscii_r.meniscus_med_r.torque.X	femur_med_meniscii_r.meniscus_med_r.torque.Y	femur_med_meniscii_r.meniscus_med_r.torque.Z	femur_med_tibia_r.tibia_upper_r.force.X	femur_med_tibia_r.tibia_upper_r.force.Y	femur_med_tibia_r.tibia_upper_r.force.Z	femur_med_tibia_r.tibia_upper_r.torque.X	femur_med_tibia_r.tibia_upper_r.torque.Y	femur_med_tibia_r.tibia_upper_r.torque.Z	femur_med_tibia_r.femur_med_r.force.X	femur_med_tibia_r.femur_med_r.force.Y	femur_med_tibia_r.femur_med_r.force.Z	femur_med_tibia_r.femur_med_r.torque.X	femur_med_tibia_r.femur_med_r.torque.Y	femur_med_tibia_r.femur_med_r.torque.Z	femur_lat_tibia_r.tibia_upper_r.force.X	femur_lat_tibia_r.tibia_upper_r.force.Y	femur_lat_tibia_r.tibia_upper_r.force.Z	femur_lat_tibia_r.tibia_upper_r.torque.X	femur_lat_tibia_r.tibia_upper_r.torque.Y	femur_lat_tibia_r.tibia_upper_r.torque.Z	femur_lat_tibia_r.femur_lat_r.force.X	femur_lat_tibia_r.femur_lat_r.force.Y	femur_lat_tibia_r.femur_lat_r.force.Z	femur_lat_tibia_r.femur_lat_r.torque.X	femur_lat_tibia_r.femur_lat_r.torque.Y	femur_lat_tibia_r.femur_lat_r.torque.Z	aACL_R	pACL_R	aPCL_R	pPCL_R	aMCL_R	mMCL_R	pMCL_R	aLCL_R	mLCL_R	pLCL_R	aPCL_L	pPCL_L	aMCL_L	aLCL_L	ground_prescribedForce_-40_fx	ground_prescribedForce_-40_fy	ground_prescribedForce_-40_fz
      0.00000000	     37.48087652	     28.28714471	     30.25598133	     13.28977762	     14.47626353	     15.91713841	     12.40213323	     18.74172569	     24.05795418	     31.17421968	      7.48171473	     27.93927808	     20.68957741	     14.51222487	     12.16230296	     19.66717628	     12.37940246	     11.16605282	      7.38206075	     18.12681708	     27.55933735	     20.56469162	     63.94906620	     55.74758807	     18.09791099	      9.16719286	     20.03897647	     58.22339510	     52.29148851	     54.95341831	     73.21447871	     33.79947917	     19.87193418	    152.72720615	     92.44658902	     14.93332009	     15.26895791	     41.82851940	     21.62523106	     46.40594865	      8.86060096	     25.04818486	      7.96045570	     37.48087652	     28.28714471	     30.25598133	     13.28977762	     14.47626353	     15.91713841	     42.06683902	     20.39635155	     37.67631238	     36.01822118	      7.59254209	     27.93927808	     20.68957741	     14.51222487	     12.16230296	     19.66717628	     12.58139899	     11.16605282	      7.78214370	     18.12681708	     27.55933735	     20.56469162	     63.94906620	     55.74758807	     18.09791099	      9.16719286	     20.03897647	     52.59637061	     32.48786114	     37.22481259	     39.87514307	     67.71424671	     31.64857027	    152.72720615	     92.44658902	     14.93332009	     15.26895791	     41.82851940	     21.62523106	     46.40594865	      8.86060096	     25.04818486	      7.96045570	    124.99446086	    124.99446086	     44.97041513	     44.97041513	     60.98287244	     60.98287244	     79.65614035	     53.27196221	      3.50419862	     -2.74309095	      2.00683086	     32.61238754	    -79.65614035	    -53.27196221	     -3.50419862	      1.61838514	     -2.37252018	     -1.48666574	      0.07910405	      0.22416276	      0.04548410	     -0.01334638	     -0.00227148	      0.03443173	     -0.07910405	     -0.22416276	     -0.04548410	     -0.00313684	      0.00137575	     -0.00135034	   -737.48936537	   -878.31723696	    426.77647758	    -24.33038591	     14.18070483	    -13.08115325	    737.48936537	    878.31723696	   -426.77647758	    191.01727066	    -11.74395948	    306.13863618	      0.00000000	      0.00000000	      0.00000000	      0.00000000	      0.00000000	      0.00000000	      0.00000000	      0.00000000	      0.00000000	      0.00000000	      0.00000000	      0.00000000	      3.01404166	      0.00000000	    416.70337723	    301.74912899	      0.00000000	      0.00000000	      0.00000000	      0.00000000	      0.00000000	      0.00000000	      0.00000000	      0.00000000	      0.00000001	      0.00000000	     84.26488000	    -70.70660000	      0.00000000
      0.00100000	     37.47068608	     28.27022932	     30.24086714	     13.26950867	     14.46480712	     15.91260065	     12.71518120	     19.08034130	     24.73203410	     33.35704780	      7.70088752	     27.92554748	     20.64313666	     14.50364319	     12.15716021	     19.66293667	     12.36517645	     11.15324218	      7.65328645	     18.11779344	     27.54583488	     20.55620729	     63.92578024	     55.73415570	     18.08271668	      9.16509816	     20.03713766	     59.17593627	     53.66044360	     56.32023065	     74.75464747	     33.90149249	     19.94799830	    151.18015217	     92.54143546	     15.02651823	     15.34112697	     42.41600903	     21.39144862	     46.14582566	      8.90823169	     25.03434906	      7.97091294	     37.47068608	     28.27022932	     30.24086714	     13.26950867	     14.46480712	     15.91260065	     42.06228881	     20.39020965	     37.67123261	     35.98888344	      7.57882260	     27.92554748	     20.64313666	     14.50364319	     12.15716021	     19.66293667	     12.58033419	     11.15324218	      7.77413879	     18.11779344	     27.54583488	     20.55620729	     63.92578024	     55.73415570	     18.08271668	      9.16509816	     20.03713766	     52.58867645	     32.47668845	     37.21372981	     39.86386325	     67.70976811	     31.64643975	    152.71327822	     92.44307771	     14.93402208	     15.26942871	     41.82127614	     21.62263156	     46.40335095	      8.85785788	     25.04326423	      7.95848292	    124.81723588	    124.81723588	     44.95337082	     44.95337082	     60.96445217	     60.96445217	     79.21865089	     36.09426498	     35.66685533	    -15.68771840	      2.30856558	     32.59255012	    -79.21865089	    -36.09426498	    -35.66685533	      2.19535670	     -3.07469006	     -1.84973916	      0.06907833	      0.15394838	      0.09694838	     -0.03710635	     -0.00217737	      0.02990513	     -0.06907833	     -0.15394838	     -0.09694838	      0.00065317	      0.00067451	     -0.00154480	   -612.59887347	   -663.33773261	    229.19220726	    -14.87549243	      9.71137998	    -11.90661836	    612.59887347	    663.33773261	   -229.19220726	    105.12420889	     -9.23337798	    254.51233110	      0.00000000	      0.00000000	      0.00000000	      0.00000000	      0.00000000	      0.00000000	      0.00000000	      0.00000000	      0.00000000	      0.00000000	      0.00000000	      0.00000000	      2.39273048	      0.00000000	    425.04589820	    320.96057127	      0.00000000	      0.00000000	      0.00000000	      0.00000000	      0.00000000	      0.00000000	      0.00000000	      0.00000000	      0.00000001	      0.00000000	     84.26488000	    -70.70660000	      0.00000000
      0.00231353	     37.42677533	     28.19975713	     30.17725243	     13.19289042	     14.41811070	     15.89307245	     13.43383390	     19.87091728	     26.42744683	     37.06152123	      7.93475052	     27.86771280	     20.48057982	     14.46787095	     12.13534563	     19.64456314	     12.09960358	     11.10285405	      8.15264465	     18.07981349	     27.48895683	     20.52017964	     63.82722308	     55.67612692	     18.02099136	      9.15606136	     20.02906575	     61.50411966	     57.43559515	     59.79519839	     79.07294090	     32.42500232	     19.18156174	    142.41232300	     92.26968442	     15.34099024	     15.55141197	     45.41813108	     20.64866148	     45.22314576	      9.42592361	     25.25512480	      8.08842056	     37.42677533	     28.19975713	     30.17725243	     13.19289042	     14.41811070	     15.89307245	     42.04235224	     20.36382068	     37.64903396	     35.86938541	      7.52849521	     27.86771280	     20.48057982	     14.46787095	     12.13534563	     19.64456314	     12.57566176	     11.10285405	      7.74225638	     18.07981349	     27.48895683	     20.52017964	     63.82722308	     55.67612692	     18.02099136	      9.15606136	     20.02906575	     52.55509055	     32.42891125	     37.16610999	     39.81532542	     67.69005672	     31.63706352	    152.65213386	     92.42759846	     14.93700360	     15.27139085	     41.78974517	     21.61125223	     46.39190392	      8.84609183	     25.02191787	      7.94995140	    124.13966167	    124.13966167	     44.88072651	     44.88072651	     60.88631839	     60.88631839	     92.83627902	     32.52764299	     49.20987926	    -21.22092022	      2.75522156	     38.27111776	    -92.83627902	    -32.52764299	    -49.20987926	      2.52759571	     -3.73168921	     -2.36001803	      0.08858343	      0.13101153	      0.10101946	     -0.03946415	     -0.00270534	      0.03811993	     -0.08858343	     -0.13101153	     -0.10101946	      0.00133245	      0.00108584	     -0.00258213	   -423.17848666	   -413.32927461	    117.12267496	     -8.37859104	      6.10203874	     -8.92796760	    423.17848666	    413.32927461	   -117.12267496	     54.72245266	     -6.20956229	    175.99452924	      0.00000000	      0.00000000	      0.00000000	      0.00000000	      0.00000000	      0.00000000	      0.00000000	      0.00000000	      0.00000000	      0.00000000	      0.00000000	      0.00000000	     -7.77543637	      0.00000000	    402.74991482	    266.95801931	      0.00000000	      0.00000000	      0.00000000	      0.00000000	      0.00000000	      0.00000000	      0.00000000	      0.00000000	      0.00000001	      0.00000000	     84.26488000	    -70.70660000	      0.00000000
      0.00362706	     37.34914793	     28.08026468	     30.06803107	     13.07675169	     14.34098474	     15.85860578	     13.72464102	     20.21733252	     27.64625532	     36.08891435	      7.53467683	     27.76832217	     20.25310745	     14.40717104	     12.09752846	     19.61184511	     11.39014167	     11.02300701	      8.11631060	     18.01459901	     27.39119512	     20.45764055	     63.65682627	     55.57320918	     17.91944608	      9.14006132	     20.01445503	     62.83984209	     59.91874744	     61.49306684	     82.13113323	     27.76278118	     16.64839539	    125.77354387	     91.00276868	     15.77289498	     15.78594764	     51.37715541	     19.68469808	     43.86654552	     10.71718397	     25.99056288	      8.38713606	     37.34914793	     28.08026468	     30.06803107	     13.07675169	     14.34098474	     15.85860578	     42.00635222	     20.31733942	     37.60908319	     35.67217509	      7.45462016	     27.76832217	     20.25310745	     14.40717104	     12.09752846	     19.61184511	     12.56720843	     11.02300701	      7.69100571	     18.01459901	     27.39119512	     20.45764055	     63.65682627	     55.57320918	     17.91944608	      9.14006132	     20.01445503	     52.49473385	     32.34524389	     37.08221973	     39.72965628	     67.65425726	     31.62003647	    152.54144721	     92.39942612	     14.94214172	     15.27467457	     41.73327954	     21.59072863	     46.37108173	      8.82541038	     24.98391281	      7.93482442	    123.09971726	    123.09971726	     44.75405364	     44.75405364	     60.75085799	     60.75085799	    115.31243104	     39.10073749	     58.90178775	    -25.40005465	      3.37027889	     47.54651486	   -115.31243104	    -39.10073749	    -58.90178775	      3.01563077	     -4.53943511	     -2.94825552	      0.32690127	      0.39075859	      0.28136088	     -0.10928300	     -0.00969583	      0.14043998	     -0.32690127	     -0.39075859	     -0.28136088	      0.00308690	      0.00491169	     -0.01041094	   -444.62052365	   -412.83386479	     95.99045317	     -7.79259918	      6.18119028	     -9.73938490	    444.62052365	    412.83386479	    -95.99045317	     45.97580561	     -6.53759534	    185.06829109	      0.00000000	      0.00000000	      0.00000000	      0.00000000	      0.00000000	      0.00000000	      0.00000000	      0.00000000	      0.00000000	      0.00000000	      0.00000000	      0.00000000	    -19.17647146	      0.00000000	    364.38779174	    197.23709712	      0.00000000	      0.00000000	      0.00000000	      0.00000000	      0.00000000	      0.00000000	      0.00000000	      0.00000000	      0.00000001	      0.00000000	     84.26488000	    -70.70660000	      0.00000000
